<svg viewBox="0 0 105 38" version="1.1" xmlns="http://www.w3.org/2000/svg" xmlns:xlink="http://www.w3.org/1999/xlink">
    <g id="Group-7" transform="translate(1.000000, 1.000000)" fill="#FFFFFF">
        <g id="Group-6">
            <path d="M23.6030866,9.01758519 C23.6301102,8.75694074 23.4417638,8.5237037 23.1824462,8.49657037 C23.1499633,8.49328148 23.1172073,8.49328148 23.0844514,8.49657037 L22.1893963,8.49657037 L22.1893963,5.06543704 L25.7952756,5.06543704 C26.9032441,5.06543704 27.5149606,5.51464444 27.5149606,6.62738519 L27.5149606,7.26597778 C27.5176903,7.47180741 27.5021312,7.67708889 27.4685564,7.8799037 L27.5149606,7.8799037 C28.0335958,6.23545926 29.592231,4.84042222 31.3364829,4.85138519 C31.4743307,4.85111111 31.6116325,4.86673333 31.7459318,4.89797778 L31.7459318,8.92412593 C31.4953491,8.87232593 31.239853,8.84848148 30.984357,8.85286667 C30.0944882,8.85286667 28.4812598,9.15982963 27.8916535,10.9826963 C27.7387927,11.5168667 27.6667297,12.0710444 27.6787402,12.6271407 L27.6787402,17.253237 L23.6030866,17.253237 L23.6030866,9.01758519 Z" id="Fill-1"></path>
            <path d="M34.4346457,9.01758519 C34.4616693,8.75694074 34.2733228,8.5237037 34.0137323,8.49657037 C33.9812493,8.49328148 33.9484934,8.49328148 33.9160105,8.49657037 L33.0288714,8.49657037 L33.0288714,5.06543704 L36.6347507,5.06543704 C37.7429921,5.06543704 38.3544357,5.51464444 38.3544357,6.62738519 L38.3544357,7.26597778 C38.3571654,7.47180741 38.3416063,7.67708889 38.3080315,7.8799037 L38.3544357,7.8799037 C38.8730709,6.23545926 40.431706,4.84042222 42.175958,4.85138519 C42.3138058,4.85111111 42.4511076,4.86673333 42.5854068,4.89797778 L42.5854068,8.92412593 C42.3348241,8.87232593 42.079601,8.84848148 41.823832,8.85286667 C40.9339633,8.85286667 39.3207349,9.15982963 38.7311286,10.9826963 C38.5782677,11.5168667 38.5062047,12.0710444 38.5182152,12.6271407 L38.5182152,17.253237 L34.4346457,17.253237 L34.4346457,9.01758519 Z" id="Fill-2"></path>
            <path d="M48.647979,14.4195852 C49.7098163,14.4195852 50.6515486,13.2599778 50.6515486,12.2650889 L50.6515486,12.0595333 L50.2748556,12.0595333 C48.9782677,12.0595333 47.4933333,12.4158296 47.4933333,13.3860519 C47.496063,13.9643481 47.848189,14.4138296 48.647979,14.4138296 L48.647979,14.4195852 Z M50.4386352,9.59286667 L50.6024147,9.59286667 L50.6024147,9.45062222 C50.6024147,8.29101481 50.0564829,7.8662 49.0465092,7.8662 C48.527874,7.8662 47.9846719,7.98405185 47.9846719,8.45847407 L47.9846719,9.00662222 L44.2204724,9.00662222 L44.2204724,7.6442 C44.2204724,4.92264444 47.6625722,4.7804 49.0519685,4.7804 C53.2938583,4.7804 54.6859843,6.95627407 54.6859843,9.74936296 L54.6859843,13.3123259 C54.6589606,13.5726963 54.8473071,13.8056593 55.1066247,13.8327926 C55.1391076,13.8363556 55.1721365,13.8363556 55.2046194,13.8327926 L56.0999475,13.8327926 L56.0999475,17.253237 L52.5513911,17.253237 C51.3721785,17.253237 50.9490814,16.5189926 50.9490814,15.9760519 L50.9490814,15.7622741 L50.9026772,15.7622741 C50.9026772,15.7622741 50.0619423,17.5410148 47.5179003,17.5410148 C45.2550131,17.5410148 43.4015748,16.0226444 43.4015748,13.6083259 C43.4015748,9.98780741 48.5551706,9.59286667 50.4386352,9.59286667 Z" id="Fill-3"></path>
            <path d="M58.1772178,8.26086667 L56.6213123,8.26086667 L56.6213123,5.06543704 L58.2945932,5.06543704 L58.2945932,2.54916296 L62.2553281,2.54916296 L62.2553281,5.06543704 L64.7993701,5.06543704 L64.7993701,8.26086667 L62.2553281,8.26086667 L62.2553281,12.2130148 C62.2553281,13.5833852 63.6447244,13.775237 64.4226772,13.775237 C64.7529659,13.775237 64.9686089,13.7505704 64.9686089,13.7505704 L64.9686089,17.3135333 C64.6014698,17.3636889 64.2310551,17.3875333 63.8603675,17.3847926 C61.927769,17.3847926 58.1799475,16.8643259 58.1799475,12.7693852 L58.1772178,8.26086667 Z" id="Fill-4"></path>
            <path d="M67.9466667,9.01758519 C67.9739633,8.75694074 67.7858898,8.5237037 67.5265722,8.49602222 C67.4919055,8.49245926 67.4569659,8.49273333 67.4225722,8.49657037 L66.5272441,8.49657037 L66.5272441,5.06543704 L70.2969029,5.06543704 C71.4979528,5.06543704 72.0165879,5.5859037 72.0165879,6.7921037 L72.0165879,12.2130148 C72.0165879,13.3476815 72.464252,13.8218296 73.3131759,13.8218296 C75.0574278,13.8218296 75.8817848,12.2845481 75.8817848,10.4616815 L75.8817848,5.06543704 L79.9790026,5.06543704 L79.9790026,13.2876593 C79.951706,13.5480296 80.1403255,13.7809926 80.399643,13.8081259 C80.432126,13.8116889 80.4648819,13.8116889 80.4973648,13.8081259 L81.3929659,13.8081259 L81.3929659,17.253237 L77.7734383,17.253237 C76.6649239,17.253237 76.0537533,16.7050889 76.0537533,15.8828667 L76.0537533,15.7184222 C76.0567559,15.6268815 76.0652178,15.5353407 76.0783202,15.4443481 L76.031916,15.4443481 C75.3713386,16.7187926 73.8864042,17.5410148 72.2595276,17.5410148 C69.8546982,17.5410148 67.9466667,16.4066222 67.9466667,12.9749407 L67.9466667,9.01758519 Z" id="Fill-5"></path>
            <path d="M83.7595801,9.01758519 C83.7866037,8.75694074 83.5982572,8.5237037 83.3389396,8.49657037 C83.3061837,8.49328148 83.2734278,8.49328148 83.2409449,8.49657037 L82.3456168,8.49657037 L82.3456168,5.06543704 L85.984252,5.06543704 C87.0924934,5.06543704 87.6820997,5.61358519 87.6820997,6.43580741 L87.6820997,6.59997778 C87.6788241,6.69179259 87.6706352,6.78333333 87.6575328,6.87405185 L87.703937,6.87405185 C88.2689764,6.02168148 89.3417323,4.76943704 91.2524934,4.76943704 C92.783832,4.76943704 94.0091759,5.45462222 94.6451864,6.82745926 L94.7191601,6.82745926 C95.5951076,5.53602222 97.0524724,4.76477778 98.6089239,4.76943704 C100.825407,4.76943704 102.545092,5.97508889 102.545092,9.33523704 L102.545092,13.301363 C102.517795,13.5617333 102.706415,13.7946963 102.965732,13.8218296 C102.998215,13.8253926 103.030971,13.8253926 103.063454,13.8218296 L103.959055,13.8218296 L103.959055,17.253237 L100.178478,17.253237 C98.9774278,17.253237 98.4587927,16.7324963 98.4587927,15.5268444 L98.4587927,10.045363 C98.4587927,9.14612593 98.2950131,8.50753333 97.5170604,8.50753333 C96.2914436,8.50753333 95.5844619,9.50242222 95.3333333,10.8508667 C95.2361575,11.3011704 95.1883885,11.7605185 95.1911181,12.221237 L95.1911181,17.253237 L91.1132808,17.253237 L91.1132808,10.0344 C91.1132808,9.13516296 90.9492283,8.49657037 90.1715486,8.49657037 C88.9702257,8.49657037 88.2853543,9.44212593 88.0039265,10.7439778 C87.8993806,11.2258 87.8442415,11.7172148 87.8404199,12.2102741 L87.8404199,17.253237 L83.7595801,17.253237 L83.7595801,9.01758519 Z" id="Fill-6"></path>
            <path d="M1.73579003,8.2224963 L0.250855643,8.2224963 L0.250855643,5.0404963 L1.73579003,5.0404963 L1.73579003,4.54442222 C1.73579003,0.548422222 5.34166929,0.000274074074 7.29883465,0.000274074074 C7.70855643,-0.00219259259 8.11800525,0.0213777778 8.52472441,0.0715333333 L8.52472441,3.52760741 C8.30580577,3.49554074 8.08497638,3.48019259 7.86387402,3.48101481 C7.06135433,3.48101481 5.81390026,3.62353333 5.81390026,4.66528889 L5.81390026,5.04351111 L8.05249344,5.04351111 L8.05249344,8.2224963 L5.81390026,8.2224963 L5.81390026,16.9928667 L1.73579003,16.9928667 L1.73579003,8.2224963 Z" id="Fill-7"></path>
            <path d="M16.7246194,9.52708889 C16.7794856,8.66978519 16.1391076,7.9264963 15.2860892,7.85797778 C14.2772073,7.78699259 13.3881575,8.51767407 13.2576798,9.52434815 L16.7246194,9.52708889 Z M15.2860892,4.78286667 C18.8671286,4.78286667 20.8952651,7.29064444 20.8952651,10.6754593 C20.8952651,11.0783481 20.799727,12.0104741 20.799727,12.0104741 L13.1566824,12.0104741 C13.4787822,13.5093852 14.7562625,14.1287926 15.9630446,14.1287926 C17.7070236,14.1287926 19.191958,12.8516074 19.191958,12.8516074 L20.8297533,15.5923481 C19.3942257,16.8522667 17.5500682,17.5421111 15.6434016,17.5327926 C11.3059738,17.5410148 8.97484514,14.389163 8.97484514,11.1468667 C8.97484514,7.57294074 11.3769449,4.78286667 15.2860892,4.78286667 Z" id="Fill-8"></path>
            <path d="M48.647979,14.4195852 C49.7098163,14.4195852 50.6515486,13.2599778 50.6515486,12.2650889 L50.6515486,12.0595333 L50.2748556,12.0595333 C48.9782677,12.0595333 47.4933333,12.4158296 47.4933333,13.3860519 C47.496063,13.9643481 47.848189,14.4138296 48.647979,14.4138296 L48.647979,14.4195852 Z M50.4386352,9.59286667 L50.6024147,9.59286667 L50.6024147,9.45062222 C50.6024147,8.29101481 50.0564829,7.8662 49.0465092,7.8662 C48.527874,7.8662 47.9846719,7.98405185 47.9846719,8.45847407 L47.9846719,9.00662222 L44.2204724,9.00662222 L44.2204724,7.6442 C44.2204724,4.92264444 47.6625722,4.7804 49.0519685,4.7804 C53.2938583,4.7804 54.6859843,6.95627407 54.6859843,9.74936296 L54.6859843,13.3123259 C54.6589606,13.5726963 54.8473071,13.8056593 55.1066247,13.8327926 C55.1391076,13.8363556 55.1721365,13.8363556 55.2046194,13.8327926 L56.0999475,13.8327926 L56.0999475,17.253237 L52.5513911,17.253237 C51.3721785,17.253237 50.9490814,16.5189926 50.9490814,15.9760519 L50.9490814,15.7622741 L50.9026772,15.7622741 C50.9026772,15.7622741 50.0619423,17.5410148 47.5179003,17.5410148 C45.2550131,17.5410148 43.4015748,16.0226444 43.4015748,13.6083259 C43.4015748,9.98780741 48.5551706,9.59286667 50.4386352,9.59286667 Z" id="Fill-9"></path>
            <path d="M48.5879265,26.7499037 L45.8255118,26.7499037 C45.9538058,25.9087704 46.4779003,25.3795333 47.4414698,25.4206444 C48.11979,25.4773778 48.6288714,26.0680074 48.5879265,26.7499037 Z M50.5259843,29.4029407 C50.5259843,29.4029407 49.3413123,30.3156074 47.9874016,30.3156074 C47.1166404,30.3156074 46.0984777,29.9014815 45.8036745,28.6410148 L51.871706,28.6410148 L51.871706,28.6848667 C51.871706,28.6547185 51.9481365,27.9804963 51.9481365,27.6598296 C51.9481365,24.7768444 50.1738583,22.9347926 47.4250919,22.9347926 C44.4224672,22.9347926 42.3397375,25.0533852 42.3397375,28.0709407 C42.3219948,29.3903333 42.8108766,30.6661481 43.7045669,31.6339037 C44.6899738,32.6751111 46.0684514,33.2290148 47.6953281,33.2290148 C49.2263937,33.2312074 50.7069606,32.6770296 51.8635171,31.6695333 L51.8935433,31.6421259 L50.5450919,29.3673111 L50.5259843,29.4029407 Z" id="Fill-10"></path>
            <path d="M16.4841365,30.1100519 C16.2523885,30.1100519 16.1159055,30.0305704 16.1159055,29.7973333 L16.1159055,26.6539778 C16.1049869,23.6062741 14.3880315,22.9676815 12.9355801,22.9676815 C11.6990446,22.9671333 10.5394856,23.5700963 9.82677165,24.5847185 C9.32151181,23.5435111 8.35794226,22.9676815 7.09711286,22.9676815 C5.9400105,22.980837 4.86752756,23.5785926 4.24434646,24.5573111 C4.24434646,24.527163 4.18702362,24.4970148 4.18702362,24.4698815 L4.18702362,24.3380519 C4.18702362,23.6229926 3.78849344,23.1762519 2.90954331,23.1762519 L0,23.1762519 L0,25.9169926 L0.714897638,25.9169926 C0.946918635,25.9169926 1.04791601,26.1661259 1.04791601,26.399363 L1.04791601,32.8507926 L4.39447769,32.8507926 L4.39447769,28.9312593 C4.40293963,28.5418 4.45152756,28.1542593 4.53914961,27.7749407 C4.71111811,26.9773852 5.1424042,26.0263481 6.20997375,26.0263481 C6.71195801,26.0263481 6.90576378,26.355237 6.90576378,27.1969185 L6.90576378,32.8398296 L10.2550551,32.8398296 L10.2550551,28.9312593 C10.2550551,28.5672889 10.2954541,28.2041407 10.3751601,27.8489407 C10.5061837,27.169237 10.8992546,26.0263481 12.0678215,26.0263481 C12.5698058,26.0263481 12.7666142,26.355237 12.7666142,27.1969185 L12.7666142,31.5653852 C12.7666142,32.5520519 13.2140052,32.8398296 14.1966824,32.8398296 L17.1610919,32.8398296 L17.1610919,30.0990889 L16.4841365,30.1100519 Z" id="Fill-11"></path>
            <path d="M25.5796325,28.1230148 C25.5796325,29.2576815 24.8453543,30.4060519 23.4365774,30.4060519 C22.0280735,30.4060519 21.2913386,29.2549407 21.2913386,28.1230148 C21.2913386,26.7690889 22.191853,25.785163 23.4338478,25.785163 C24.6758425,25.785163 25.5820892,26.7663481 25.5820892,28.1230148 L25.5796325,28.1230148 Z M23.4201995,22.9676815 C20.240147,22.9676815 17.9308556,25.1356074 17.9308556,28.1230148 C17.9308556,31.1101481 20.248336,33.2207926 23.4393071,33.2207926 C26.6302782,33.2207926 28.9480315,31.0772593 28.9480315,28.1230148 C28.9480315,25.1684963 26.6250919,22.9676815 23.4201995,22.9676815 Z" id="Fill-12"></path>
            <path d="M40.9148556,30.1100519 C40.6828346,30.1100519 40.5982152,30.0305704 40.5982152,29.7973333 L40.5982152,26.6539778 C40.5982152,24.2421259 39.3589501,22.9676815 37.0496588,22.9676815 C35.816126,22.9186222 34.6461942,23.5163778 33.959685,24.5466222 C33.959685,24.5189407 33.8969029,24.4942741 33.8969029,24.4698815 L33.8969029,24.3380519 C33.8969029,23.6229926 33.4819948,23.1762519 32.6030446,23.1762519 L29.7096063,23.1762519 L29.7096063,25.9169926 L30.4275066,25.9169926 C30.6595276,25.9169926 30.7577953,26.1661259 30.7577953,26.399363 L30.7577953,32.8507926 L34.1207349,32.8507926 L34.1207349,28.6574593 C34.1160945,28.2279852 34.1835171,27.8007037 34.32,27.3939778 C34.559937,26.5536667 35.3417113,25.9874296 36.2116535,26.0236074 C36.9159055,26.0236074 37.2571129,26.4018296 37.2571129,27.2514593 L37.2571129,31.5626444 C37.2571129,32.549037 37.6529134,32.8370889 38.6219423,32.8370889 L41.6382152,32.8370889 L41.6382152,30.0963481 L40.9148556,30.1100519 Z" id="Fill-13"></path>
            <path d="M60.5110761,23.1759778 C59.9695118,23.1518593 59.4789921,23.4958222 59.3154856,24.0146444 L58.248189,27.9339037 C58.1390026,28.3203481 58.016168,28.9562 57.9615748,29.2659037 C57.8824147,28.8150519 57.7737743,28.3702296 57.6367454,27.9339037 L56.2091339,24.009163 C56.0439895,23.5032222 55.5654803,23.1680296 55.0353806,23.1869407 L52.5268241,23.1869407 L52.5268241,25.9276815 L53.0290814,25.9276815 C53.2310761,25.9276815 53.3020472,26.0321037 53.3948556,26.2593111 L56.4411549,32.9330148 L56.3374278,33.2070889 C56.1403465,33.8023778 55.5657533,34.1874519 54.9425722,34.1416815 C54.4517795,34.1098889 53.9907402,33.8961111 53.6487139,33.5414593 L53.5968504,33.4863704 L52.3821522,35.8875333 L52.4094488,35.9149407 C53.1726614,36.5842296 54.1498793,36.9569704 55.1636745,36.9646444 C56.048084,36.9646444 58.2208924,36.6905704 59.2445144,34.0125926 L62.1707087,26.2538296 C62.2580577,26.0263481 62.3727034,25.9276815 62.5719685,25.9276815 L62.9896063,25.9276815 L62.9896063,23.1869407 L60.5110761,23.1759778 Z" id="Fill-14"></path>
        </g>
    </g>
</svg>