<?xml version="1.0" encoding="UTF-8"?>
<svg width="88px" height="32px" viewBox="0 0 88 32" version="1.1" xmlns="http://www.w3.org/2000/svg" xmlns:xlink="http://www.w3.org/1999/xlink">
    <!-- Generator: Sketch 51.1 (57501) - http://www.bohemiancoding.com/sketch -->
    <title>ferratum logo</title>
    <desc>Created with Sketch.</desc>
    <defs></defs>
    <g id="ferratum-logo" stroke="none" stroke-width="1" fill="none" fill-rule="evenodd">
        <g id="Group-13">
            <g id="Group-15">
                <path d="M19.7448898,7.55527407 C19.7674961,7.3368963 19.609937,7.14148148 19.3930079,7.11874815 C19.3658346,7.11599259 19.3384331,7.11599259 19.3110315,7.11874815 L18.5622835,7.11874815 L18.5622835,4.24401481 L21.5787402,4.24401481 C22.5055984,4.24401481 23.0173228,4.62037778 23.0173228,5.55267407 L23.0173228,6.08771111 C23.0196063,6.26016296 23.0065906,6.43215556 22.9785039,6.60208148 L23.0173228,6.60208148 C23.4511811,5.2243037 24.7550394,4.05548889 26.2141732,4.06467407 C26.3294882,4.06444444 26.4443465,4.07753333 26.5566929,4.10371111 L26.5566929,7.47697037 C26.3470709,7.43357037 26.1333386,7.41359259 25.9196063,7.41726667 C25.1751969,7.41726667 23.8256693,7.67445185 23.3324409,9.20171852 C23.2045669,9.64926667 23.1442835,10.1135778 23.1543307,10.5794963 L23.1543307,14.4554148 L19.7448898,14.4554148 L19.7448898,7.55527407 Z" id="Fill-1" fill="#194DA1"></path>
                <path d="M28.8059055,7.55527407 C28.8285118,7.3368963 28.6709528,7.14148148 28.4537953,7.11874815 C28.426622,7.11599259 28.3992205,7.11599259 28.3720472,7.11874815 L27.6299213,7.11874815 L27.6299213,4.24401481 L30.646378,4.24401481 C31.5734646,4.24401481 32.0849606,4.62037778 32.0849606,5.55267407 L32.0849606,6.08771111 C32.0872441,6.26016296 32.0742283,6.43215556 32.0461417,6.60208148 L32.0849606,6.60208148 C32.5188189,5.2243037 33.8226772,4.05548889 35.281811,4.06467407 C35.397126,4.06444444 35.5119843,4.07753333 35.6243307,4.10371111 L35.6243307,7.47697037 C35.4147087,7.43357037 35.2012047,7.41359259 34.9872441,7.41726667 C34.2428346,7.41726667 32.8933071,7.67445185 32.4000787,9.20171852 C32.2722047,9.64926667 32.2119213,10.1135778 32.2219685,10.5794963 L32.2219685,14.4554148 L28.8059055,14.4554148 L28.8059055,7.55527407 Z" id="Fill-2" fill="#194DA1"></path>
                <path d="M40.6959055,12.0812741 C41.5841732,12.0812741 42.3719685,11.1097111 42.3719685,10.2761556 L42.3719685,10.1039333 L42.0568504,10.1039333 C40.9722047,10.1039333 39.73,10.4024519 39.73,11.2153407 C39.7322835,11.6998593 40.0268504,12.0764519 40.6959055,12.0764519 L40.6959055,12.0812741 Z M42.1938583,8.03726667 L42.3308661,8.03726667 L42.3308661,7.91808889 C42.3308661,6.94652593 41.8741732,6.5906 41.0292913,6.5906 C40.5954331,6.5906 40.1410236,6.68934074 40.1410236,7.08682963 L40.1410236,7.54608889 L36.992126,7.54608889 L36.992126,6.4046 C36.992126,4.12437778 39.8715748,4.0052 41.0338583,4.0052 C44.5823622,4.0052 45.7469291,5.82822963 45.7469291,8.16838519 L45.7469291,11.1535704 C45.7243228,11.3717185 45.8818819,11.5669037 46.098811,11.589637 C46.1259843,11.5926222 46.1536142,11.5926222 46.1807874,11.589637 L46.9297638,11.589637 L46.9297638,14.4554148 L43.9612598,14.4554148 C42.9748031,14.4554148 42.6208661,13.840237 42.6208661,13.3853407 L42.6208661,13.2062296 L42.5820472,13.2062296 C42.5820472,13.2062296 41.8787402,14.6965259 39.7505512,14.6965259 C37.8575591,14.6965259 36.3070866,13.4243778 36.3070866,11.4015704 C36.3070866,8.36816296 40.6182677,8.03726667 42.1938583,8.03726667 Z" id="Fill-3" fill="#194DA1"></path>
                <path d="M48.6674803,6.92126667 L47.3659055,6.92126667 L47.3659055,4.24401481 L48.7656693,4.24401481 L48.7656693,2.13578519 L52.0789764,2.13578519 L52.0789764,4.24401481 L54.2071654,4.24401481 L54.2071654,6.92126667 L52.0789764,6.92126667 L52.0789764,10.2325259 C52.0789764,11.3806741 53.2412598,11.5414148 53.8920472,11.5414148 C54.1683465,11.5414148 54.3487402,11.5207481 54.3487402,11.5207481 L54.3487402,14.5059333 C54.0416142,14.5479556 53.731748,14.5679333 53.4216535,14.565637 C51.8049606,14.565637 48.6697638,14.1295704 48.6697638,10.6986741 L48.6674803,6.92126667 Z" id="Fill-4" fill="#194DA1"></path>
                <path d="M56.84,7.55527407 C56.8628346,7.3368963 56.7055039,7.14148148 56.4885748,7.11828889 C56.4595748,7.1153037 56.4303465,7.11553333 56.4015748,7.11874815 L55.6525984,7.11874815 L55.6525984,4.24401481 L58.806063,4.24401481 C59.8107874,4.24401481 60.2446457,4.68008148 60.2446457,5.69068148 L60.2446457,10.2325259 C60.2446457,11.1831926 60.6191339,11.5804519 61.3292913,11.5804519 C62.7884252,11.5804519 63.4780315,10.2924593 63.4780315,8.76519259 L63.4780315,4.24401481 L66.9055118,4.24401481 L66.9055118,11.1329037 C66.8826772,11.3510519 67.0404646,11.546237 67.2573937,11.5689704 C67.2845669,11.5719556 67.3119685,11.5719556 67.3391417,11.5689704 L68.0883465,11.5689704 L68.0883465,14.4554148 L65.0604724,14.4554148 C64.1331575,14.4554148 63.6218898,13.9961556 63.6218898,13.3072667 L63.6218898,13.1694889 C63.6244016,13.0927926 63.6314803,13.0160963 63.6424409,12.9398593 L63.603622,12.9398593 C63.0510236,14.007637 61.8088189,14.6965259 60.447874,14.6965259 C58.4361417,14.6965259 56.84,13.7460889 56.84,10.8708963 L56.84,7.55527407 Z" id="Fill-5" fill="#194DA1"></path>
                <path d="M70.0681102,7.55527407 C70.0907165,7.3368963 69.9331575,7.14148148 69.7162283,7.11874815 C69.6888268,7.11599259 69.6614252,7.11599259 69.634252,7.11874815 L68.8852756,7.11874815 L68.8852756,4.24401481 L71.9291339,4.24401481 C72.8562205,4.24401481 73.3494488,4.70327407 73.3494488,5.39216296 L73.3494488,5.52971111 C73.3467087,5.60663704 73.3398583,5.68333333 73.3288976,5.75934074 L73.3677165,5.75934074 C73.8403937,5.04519259 74.7377953,3.99601481 76.3362205,3.99601481 C77.6172441,3.99601481 78.6422913,4.57008889 79.1743386,5.7203037 L79.2362205,5.7203037 C79.9689843,4.63828889 81.188126,3.99211111 82.4901575,3.99601481 C84.3443307,3.99601481 85.7829134,5.00615556 85.7829134,7.82141481 L85.7829134,11.1443852 C85.7600787,11.3625333 85.9178661,11.5577185 86.1347953,11.5804519 C86.1619685,11.583437 86.1893701,11.583437 86.2165433,11.5804519 L86.965748,11.5804519 L86.965748,14.4554148 L83.8031496,14.4554148 C82.7984252,14.4554148 82.3645669,14.0191185 82.3645669,13.0089778 L82.3645669,8.41638519 C82.3645669,7.66297037 82.2275591,7.12793333 81.5767717,7.12793333 C80.5514961,7.12793333 79.9600787,7.96148889 79.75,9.09126667 C79.6687087,9.46854815 79.628748,9.85340741 79.6310315,10.2394148 L79.6310315,14.4554148 L76.2197638,14.4554148 L76.2197638,8.4072 C76.2197638,7.65378519 76.0825276,7.11874815 75.4319685,7.11874815 C74.4270157,7.11874815 73.8540945,7.91097037 73.6186693,9.00171111 C73.5312126,9.4054 73.4850866,9.81712593 73.4818898,10.2302296 L73.4818898,14.4554148 L70.0681102,14.4554148 L70.0681102,7.55527407 Z" id="Fill-6" fill="#194DA1"></path>
                <path d="M1.45205512,6.88911852 L0.209850394,6.88911852 L0.209850394,4.22311852 L1.45205512,4.22311852 L1.45205512,3.80748889 C1.45205512,0.459488889 4.46851181,0.00022962963 6.10575591,0.00022962963 C6.44850394,-0.00183703704 6.79102362,0.0179111111 7.13125984,0.0599333333 L7.13125984,2.95556296 C6.94812598,2.9286963 6.7633937,2.91583704 6.57843307,2.91652593 C5.90709449,2.91652593 4.86355118,3.03593333 4.86355118,3.90875556 L4.86355118,4.22564444 L6.73622047,4.22564444 L6.73622047,6.88911852 L4.86355118,6.88911852 L4.86355118,14.2372667 L1.45205512,14.2372667 L1.45205512,6.88911852 Z" id="Fill-7" fill="#194DA1"></path>
                <path d="M13.9907874,7.98215556 C14.036685,7.26387407 13.5009843,6.64111852 12.7874016,6.58371111 C11.9434331,6.52423704 11.1997087,7.13642963 11.0905591,7.97985926 L13.9907874,7.98215556 Z M12.7874016,4.00726667 C15.7830787,4.00726667 17.4796929,6.10837778 17.4796929,8.9443037 C17.4796929,9.28185926 17.3997717,10.0628296 17.3997717,10.0628296 L11.0060709,10.0628296 C11.2755197,11.3186741 12.3441811,11.837637 13.3537008,11.837637 C14.8126063,11.837637 16.054811,10.767563 16.054811,10.767563 L17.4248898,13.0638593 C16.2240157,14.1194667 14.6813071,14.6974444 13.0863071,14.689637 C9.45788189,14.6965259 7.50780315,12.0557852 7.50780315,9.33926667 C7.50780315,6.3448963 9.51725197,4.00726667 12.7874016,4.00726667 Z" id="Fill-8" fill="#194DA1"></path>
                <path d="M40.6959055,12.0812741 C41.5841732,12.0812741 42.3719685,11.1097111 42.3719685,10.2761556 L42.3719685,10.1039333 L42.0568504,10.1039333 C40.9722047,10.1039333 39.73,10.4024519 39.73,11.2153407 C39.7322835,11.6998593 40.0268504,12.0764519 40.6959055,12.0764519 L40.6959055,12.0812741 Z M42.1938583,8.03726667 L42.3308661,8.03726667 L42.3308661,7.91808889 C42.3308661,6.94652593 41.8741732,6.5906 41.0292913,6.5906 C40.5954331,6.5906 40.1410236,6.68934074 40.1410236,7.08682963 L40.1410236,7.54608889 L36.992126,7.54608889 L36.992126,6.4046 C36.992126,4.12437778 39.8715748,4.0052 41.0338583,4.0052 C44.5823622,4.0052 45.7469291,5.82822963 45.7469291,8.16838519 L45.7469291,11.1535704 C45.7243228,11.3717185 45.8818819,11.5669037 46.098811,11.589637 C46.1259843,11.5926222 46.1536142,11.5926222 46.1807874,11.589637 L46.9297638,11.589637 L46.9297638,14.4554148 L43.9612598,14.4554148 C42.9748031,14.4554148 42.6208661,13.840237 42.6208661,13.3853407 L42.6208661,13.2062296 L42.5820472,13.2062296 C42.5820472,13.2062296 41.8787402,14.6965259 39.7505512,14.6965259 C37.8575591,14.6965259 36.3070866,13.4243778 36.3070866,11.4015704 C36.3070866,8.36816296 40.6182677,8.03726667 42.1938583,8.03726667 Z" id="Fill-9" fill="#194DA1"></path>
                <path d="M40.6456693,22.4120815 L38.3348031,22.4120815 C38.442126,21.7073481 38.8805512,21.2639333 39.6866142,21.2983778 C40.2540551,21.3459111 40.6799213,21.840763 40.6456693,22.4120815 Z M42.2669291,24.6348963 C42.2669291,24.6348963 41.2759055,25.399563 40.1433071,25.399563 C39.4148819,25.399563 38.5631496,25.0525926 38.3165354,23.9965259 L43.3926772,23.9965259 L43.3926772,24.0332667 C43.3926772,24.0080074 43.4566142,23.4431185 43.4566142,23.1744519 C43.4566142,20.7589778 41.9723622,19.215637 39.6729134,19.215637 C37.1611024,19.215637 35.4188189,20.9906741 35.4188189,23.5188963 C35.4039764,24.6243333 35.8129449,25.6932593 36.5605512,26.5040815 C37.3848819,27.3764444 38.5380315,27.8405259 39.8989764,27.8405259 C41.1797717,27.842363 42.4183228,27.3780519 43.3858268,26.5339333 L43.4109449,26.5109704 L42.2829134,24.6050444 L42.2669291,24.6348963 Z" id="Fill-10" fill="#F79231"></path>
                <path d="M13.7896142,25.2273407 C13.595748,25.2273407 13.4815748,25.1607481 13.4815748,24.9653333 L13.4815748,22.3317111 C13.4724409,19.7782296 12.0361417,19.2431926 10.8211102,19.2431926 C9.78670079,19.2427333 8.81668504,19.7479185 8.22047244,20.5980074 C7.79780315,19.7256444 6.99174016,19.2431926 5.93700787,19.2431926 C4.96904724,19.2542148 4.07187402,19.755037 3.55055906,20.5750444 C3.55055906,20.5497852 3.5026063,20.5245259 3.5026063,20.5017926 L3.5026063,20.3913407 C3.5026063,19.792237 3.16922047,19.4179407 2.43394488,19.4179407 L0,19.4179407 L0,21.714237 L0.59803937,21.714237 C0.792133858,21.714237 0.876622047,21.9229704 0.876622047,22.1183852 L0.876622047,27.523637 L3.67614961,27.523637 L3.67614961,24.2397037 C3.68322835,23.9134 3.72387402,23.5887037 3.79717323,23.2708963 C3.9410315,22.6026741 4.3018189,21.8058593 5.19488189,21.8058593 C5.61481102,21.8058593 5.77693701,22.0814148 5.77693701,22.7866074 L5.77693701,27.5144519 L8.57874803,27.5144519 L8.57874803,24.2397037 C8.57874803,23.9347556 8.61254331,23.6304963 8.67922047,23.3328963 C8.78882677,22.7634148 9.11764567,21.8058593 10.0951969,21.8058593 C10.515126,21.8058593 10.6797638,22.0814148 10.6797638,22.7866074 L10.6797638,26.4466741 C10.6797638,27.2733407 11.0540236,27.5144519 11.8760709,27.5144519 L14.3559134,27.5144519 L14.3559134,25.2181556 L13.7896142,25.2273407 Z" id="Fill-11" fill="#F79231"></path>
                <path d="M21.3983465,23.5625259 C21.3983465,24.5131926 20.7840945,25.4753407 19.6055984,25.4753407 C18.4273307,25.4753407 17.8110236,24.5108963 17.8110236,23.5625259 C17.8110236,22.4281556 18.5643386,21.6037852 19.603315,21.6037852 C20.6422913,21.6037852 21.4004016,22.4258593 21.4004016,23.5625259 L21.3983465,23.5625259 Z M19.5918976,19.2431926 C16.9316614,19.2431926 14.9998504,21.059563 14.9998504,23.5625259 C14.9998504,26.0652593 16.9385118,27.833637 19.6078819,27.833637 C22.277252,27.833637 24.2161417,26.0377037 24.2161417,23.5625259 C24.2161417,21.0871185 22.2729134,19.2431926 19.5918976,19.2431926 Z" id="Fill-12" fill="#F79231"></path>
                <path d="M34.2268504,25.2273407 C34.0327559,25.2273407 33.9619685,25.1607481 33.9619685,24.9653333 L33.9619685,22.3317111 C33.9619685,20.3109704 32.9252756,19.2431926 30.9934646,19.2431926 C29.9615669,19.2020889 28.982874,19.7029111 28.4085827,20.5660889 C28.4085827,20.5428963 28.356063,20.5222296 28.356063,20.5017926 L28.356063,20.3913407 C28.356063,19.792237 28.0089764,19.4179407 27.2737008,19.4179407 L24.8532283,19.4179407 L24.8532283,21.714237 L25.4537795,21.714237 C25.647874,21.714237 25.7300787,21.9229704 25.7300787,22.1183852 L25.7300787,27.523637 L28.5433071,27.523637 L28.5433071,24.0103037 C28.5394252,23.6504741 28.5958268,23.2924815 28.71,22.9517111 C28.9107165,22.2476667 29.5647008,21.7732519 30.2924409,21.803563 C30.8815748,21.803563 31.1670079,22.1204519 31.1670079,22.8323037 L31.1670079,26.4443778 C31.1670079,27.2708148 31.4981102,27.5121556 32.3087402,27.5121556 L34.8319685,27.5121556 L34.8319685,25.2158593 L34.2268504,25.2273407 Z" id="Fill-13" fill="#F79231"></path>
                <path d="M50.6198425,19.4177111 C50.1668031,19.3975037 49.7564646,19.6856889 49.619685,20.1203778 L48.7268504,23.4040815 C48.6355118,23.7278593 48.5327559,24.2606 48.4870866,24.5200815 C48.4208661,24.1423407 48.3299843,23.7696519 48.2153543,23.4040815 L47.0211024,20.1157852 C46.8829528,19.6918889 46.4826614,19.4110519 46.0392126,19.4268963 L43.9407087,19.4268963 L43.9407087,21.7231926 L44.3608661,21.7231926 C44.5298425,21.7231926 44.5892126,21.8106815 44.6668504,22.0010444 L47.2151969,27.5925259 L47.1284252,27.8221556 C46.9635591,28.3209111 46.4828898,28.6435407 45.9615748,28.6051926 C45.5510079,28.5785556 45.1653307,28.3994444 44.8792126,28.1023037 L44.8358268,28.0561481 L43.819685,30.0679333 L43.8425197,30.0908963 C44.4809764,30.6516519 45.2984567,30.9639481 46.1465354,30.9703778 C46.886378,30.9703778 48.7040157,30.7407481 49.560315,28.497037 L52.008189,21.9964519 C52.0812598,21.8058593 52.1771654,21.7231926 52.3438583,21.7231926 L52.6932283,21.7231926 L52.6932283,19.4268963 L50.6198425,19.4177111 Z" id="Fill-14" fill="#F79231"></path>
            </g>
        </g>
    </g>
</svg>