<svg viewBox="0 0 129 129" xmlns="http://www.w3.org/2000/svg"><circle fill="#FFF" cx="64.5" cy="64.5" r="64.5"/><path d="M92.938 62.452c-.692 0-1.252.537-1.252 1.2 0 .839-.714 1.522-1.59 1.522-.878 0-1.591-.683-1.591-1.523 0-.662-.56-1.199-1.253-1.199-.691 0-1.252.537-1.252 1.2 0 2.16 1.837 3.92 4.095 3.92s4.095-1.76 4.095-3.92c0-.663-.56-1.2-1.252-1.2z" fill="#838DB5"/><path d="M105.16 63.183l-3.606-1.12a1.486 1.486 0 0 1-.973-.957 22.296 22.296 0 0 0-3.41-6.54 24.201 24.201 0 0 0-2.277-2.605c.532-2.264.821-4.825.784-7.038-.054-3.166-.706-5.023-1.995-5.678-.694-.353-2.806-1.425-14.236 3.65-.27.12-.523.267-.757.437-.77-.2-1.558-.387-2.35-.553l-.29-.058c.925-1.962-2.707.616-5.35 3.179a14.9 14.9 0 0 1-5.397 3.343c-3.417-.464-6.327-.464-9.744 0-1.97-.7-3.209.563-4.694.798-.795.201-1.586.426-2.368.68-.671.218-1.033.922-.809 1.573.224.65.95 1.002 1.622.784 6.988-2.265 14.685-2.265 21.673 0 .135.044.272.065.406.065a1.28 1.28 0 0 0 1.216-.85c.224-.65-.138-1.354-.81-1.572a36.906 36.906 0 0 0-2.369-.68 17.357 17.357 0 0 0 3.087-2.384 17.132 17.132 0 0 0 2.233-2.659 50.459 50.459 0 0 1 2.422.52c-.666 3.038-.625 5.581.08 7.721.633 1.924 1.777 3.482 3.398 4.633 1.91 1.355 4.217 1.94 6.307 1.94 1.573 0 3.023-.331 4.087-.916 1.205-.662 2.214-2.056 3.013-4.149.369.418.719.846 1.049 1.285a19.84 19.84 0 0 1 3.034 5.82 4.014 4.014 0 0 0 2.637 2.577l3.606 1.12c.947.295 1.582 1.14 1.582 2.103v5.799c0 .964-.635 1.808-1.582 2.102l-5.81 1.805a3.937 3.937 0 0 0-2.216 1.745c-2.282 3.826-5.872 6.992-10.668 9.41-.554.28-.938.78-1.053 1.372l-1.861 9.556a.572.572 0 0 1-.566.455h-6.051a.572.572 0 0 1-.566-.455l-1.03-5.28c-.203-1.04-1.208-1.73-2.29-1.571a55.205 55.205 0 0 1-7.982.576c-2.002 0-3.978-.109-5.873-.322-1.048-.117-2.025.576-2.22 1.58l-.98 5.017a.572.572 0 0 1-.566.455h-6.05a.573.573 0 0 1-.567-.459l-1.792-9.025a1.957 1.957 0 0 0-1.034-1.357c-8.176-4.232-12.497-11.304-12.497-20.45 0-4.62 1.042-8.706 3.098-12.144 1.918-3.208 4.72-5.86 8.328-7.884a1.223 1.223 0 0 0 .468-1.698 1.304 1.304 0 0 0-1.751-.454c-6.996 3.924-11.215 9.979-12.376 17.668-.124-.01-.247-.021-.37-.034a6.022 6.022 0 0 0-.47-2.479c-.743-1.792-2.27-3.085-3.89-3.295-1.277-.166-2.492.36-3.335 1.44-1.223 1.567-1.023 2.806-.641 3.57.645 1.29 2.304 2.202 5.057 2.776-.075.11-.158.22-.25.331-1.626 1.978-3.543 2.416-4.787 2.457-.728.024-1.312.591-1.312 1.298 0 .703.568 1.272 1.286 1.304.092.004.188.006.288.006 1.575 0 4.102-.563 6.53-3.515.383-.466.695-.958.935-1.466.242.027.474.05.697.07a31.715 31.715 0 0 0-.068 2.05c0 5.174 1.272 9.788 3.78 13.713 2.314 3.619 5.625 6.582 9.847 8.81l1.742 8.774c.28 1.436 1.577 2.478 3.083 2.478h6.051c1.507 0 2.804-1.042 3.084-2.478l.885-4.537c1.84.189 3.744.285 5.67.285 2.64 0 5.28-.179 7.85-.53l.934 4.783c.28 1.435 1.577 2.477 3.084 2.477h6.05c1.507 0 2.804-1.042 3.084-2.478l1.812-9.304c5.12-2.625 8.978-6.073 11.471-10.252.18-.3.457-.522.78-.622l5.81-1.805c2.011-.625 3.363-2.421 3.363-4.47v-5.799c0-2.048-1.352-3.844-3.363-4.468zM92.924 48.414c-.494 4.09-1.817 7.59-3.146 8.32-1.51.83-5 .99-7.618-.868-2.622-1.86-3.495-5.205-2.524-9.674.097-.449.426-.837.879-1.038 6.415-2.848 10.114-3.779 11.488-3.779.207 0 .361.021.464.06.413.427.954 2.852.457 6.98zM24.073 62.21c-.132-.265.181-.73.38-.985.314-.403.604-.486.823-.486.046 0 .09.004.129.01.59.075 1.415.704 1.852 1.758.103.248.237.66.268 1.172-1.774-.356-3.152-.87-3.451-1.469z" fill="#838DB5"/><path d="M76.246 42.71a16.9 16.9 0 0 0 1.562-6.362 1.264 1.264 0 0 0-1.217-1.312 1.267 1.267 0 0 0-1.332 1.2 14.493 14.493 0 0 1-4.338 9.688 14.783 14.783 0 0 1-5.374 3.38c-.555.127-1.327-.037-2.3-.111-1.094-.084-2.423-.089-3.63-.105-1.824-.024-3.53.432-4.339.217a14.78 14.78 0 0 1-5.374-3.38c-2.807-2.765-4.353-6.44-4.353-10.349 0-3.91 1.546-7.584 4.353-10.348 2.807-2.764 6.54-4.287 10.509-4.287 3.97 0 7.701 1.523 10.508 4.287a14.638 14.638 0 0 1 2.77 3.767c.318.62 1.085.87 1.714.557.63-.312.883-1.067.566-1.687a17.142 17.142 0 0 0-3.245-4.414c-3.289-3.239-7.662-5.022-12.313-5.022-4.651 0-9.024 1.783-12.313 5.022-3.289 3.239-5.1 7.545-5.1 12.125s1.811 8.886 5.1 12.125a17.372 17.372 0 0 0 3.073 2.41c.287.213 4.86-1.008 8.872-1.023 1.48-.005 2.88.048 4.144.217 2.882.384 5.015 1.06 5.463.806a17.26 17.26 0 0 0 5.297-5.098c.304-.492.737-1.26 1.297-2.303z" fill="#FB9116"/><path d="M61.374 33.942v-4.309c1.596.106 2.189.786 2.736.786.684 0 1.003-.807 1.003-1.21 0-1.04-2.189-1.486-3.74-1.529v-.573c0-.254-.341-.488-.683-.488-.388 0-.662.234-.662.488v.616c-2.166.212-4.332 1.273-4.332 3.948 0 2.717 2.28 3.48 4.332 4.16v4.988c-2.325-.17-2.941-1.656-3.693-1.656-.57 0-1.05.7-1.05 1.21 0 1.04 1.916 2.462 4.743 2.505v.658c0 .254.274.488.662.488.342 0 .684-.234.684-.488v-.722c2.463-.318 4.15-1.762 4.15-4.372 0-2.887-2.166-3.821-4.15-4.5zm-1.209-.403c-1.208-.425-2.189-.87-2.189-2.08 0-1.104.912-1.635 2.19-1.783v3.863zm1.072 7.237v-4.478c1.117.445 2.006 1.04 2.006 2.377 0 1.21-.775 1.89-2.006 2.101z" fill="#FB9116"/></svg>