<svg viewBox="0 0 129 129" xmlns="http://www.w3.org/2000/svg"><circle fill="#FFF" cx="64.5" cy="64.5" r="64.5"/><path d="M75.748 31.1c-.823-6.057-5.846-10.624-11.683-10.624-3.754 0-7.319 1.901-9.535 5.087-.453.65-.318 1.561.301 2.036a1.346 1.346 0 0 0 1.94-.317c1.697-2.437 4.423-3.891 7.293-3.891 4.464 0 8.305 3.49 8.934 8.12.1.726.694 1.25 1.374 1.25.064 0 .131-.004.197-.014.76-.114 1.287-.852 1.179-1.648zM97.059 46.927l-4.273-7.312c-.257-.441-.721-.71-1.222-.71H87.47c-.786 0-1.424.655-1.424 1.462 0 .807.638 1.462 1.424 1.462h3.289l2.564 4.388H35.678l2.564-4.388h1.509c.786 0 1.424-.655 1.424-1.462 0-.807-.638-1.462-1.424-1.462h-2.315c-.501 0-.965.269-1.222.71l-4.273 7.312a1.498 1.498 0 0 0-.018 1.474c.252.458.726.742 1.24.742h62.674c.514 0 .987-.284 1.24-.742a1.497 1.497 0 0 0-.018-1.474z" fill="#838DB5"/><path d="M89.883 33.75a1.41 1.41 0 0 0-.88-.62l-19.267-4.427a1.438 1.438 0 0 0-1.068.172 1.39 1.39 0 0 0-.63.864l-1.453 6.1a1.386 1.386 0 0 0 1.054 1.668c.76.175 1.521-.289 1.699-1.036l1.13-4.748 16.515 3.794-2.595 10.898c-.178.747 2.601 1.272 2.752.632l2.918-12.25a1.362 1.362 0 0 0-.175-1.048zM64.49 36.589l-1.235-10.782a1.409 1.409 0 0 0-.507-.935 1.326 1.326 0 0 0-.998-.291l-22.673 2.766c-.743.09-1.274.786-1.187 1.554l2.06 17.983c.081.712 2.78.44 2.692-.329l-1.9-16.594 19.98-2.437 1.076 9.392c.088.767.759 1.313 1.506 1.226.743-.09 1.274-.786 1.187-1.553z" fill="#FB9116"/><path d="M75.724 46.394l-2.73-11.538a1.4 1.4 0 0 0-.62-.866 1.365 1.365 0 0 0-1.04-.166l-22.16 5.416a1.4 1.4 0 0 0-1.017 1.686l1.365 5.767c.177.751.92 1.214 1.659 1.032a1.4 1.4 0 0 0 1.016-1.686l-1.044-4.408L70.64 36.87l2.409 10.178c.151.641 2.853.096 2.676-.654z" fill="#FB9116"/><path d="M96.523 46.374a1.396 1.396 0 0 0-1.391-1.326H33.868c-.741 0-1.352.583-1.39 1.326l-2.786 54.537a1.392 1.392 0 0 0 1.39 1.47h66.834a1.396 1.396 0 0 0 1.392-1.47l-2.785-54.537zm-63.975 53.21l2.642-51.74h58.618l2.642 51.74H32.548z" fill="#838DB5"/><path d="M74.738 51.19a4.1 4.1 0 0 0-4.095 4.096 4.1 4.1 0 0 0 4.095 4.095 4.1 4.1 0 0 0 4.095-4.095 4.1 4.1 0 0 0-4.095-4.096zm0 5.461a1.366 1.366 0 0 1-1.365-1.365c0-.753.612-1.365 1.365-1.365s1.365.612 1.365 1.365-.612 1.365-1.365 1.365zM53.238 51.19a4.1 4.1 0 0 0-4.095 4.096 4.1 4.1 0 0 0 4.095 4.095 4.1 4.1 0 0 0 4.095-4.095 4.1 4.1 0 0 0-4.095-4.096zm0 5.461a1.366 1.366 0 0 1-1.365-1.365c0-.753.612-1.365 1.365-1.365s1.365.612 1.365 1.365-.612 1.365-1.365 1.365z" fill="#838DB5"/><path d="M74.377 55.286h-.107c-.764 0-1.385.611-1.385 1.365 0 .186.037.364.107.526v6.981c0 4.893-4.04 8.874-9.004 8.874-4.965 0-9.004-3.98-9.004-8.874v-7.507c0-.753-.62-1.365-1.385-1.365-.764 0-1.385.612-1.385 1.365v7.508c0 6.398 5.282 11.603 11.774 11.603 6.492 0 11.774-5.205 11.774-11.603V56.65c0-.753-.62-1.365-1.385-1.365z" fill="#838DB5"/></svg>