<svg viewBox="0 0 129 129" xmlns="http://www.w3.org/2000/svg"><circle fill="#FFF" cx="64.5" cy="64.5" r="64.5"/><path d="M91.748 50.338H26.125c-.62 0-1.124.497-1.125 1.112v31.219c0 .615.502 1.114 1.122 1.115h44.625c.62 0 1.125-.5 1.125-1.115a1.12 1.12 0 0 0-1.125-1.115H27.249V52.567h63.372v2.788c-.001.615.501 1.114 1.122 1.114h.002c.62 0 1.124-.497 1.125-1.112v-3.904c0-.615-.502-1.114-1.122-1.115zM83.899 44.201L31.99 33.134a1.17 1.17 0 0 0-.84.137c-.249.15-.425.389-.49.662L28.066 45c-.134.569.245 1.132.844 1.258.6.127 1.195-.232 1.328-.8l2.353-10.036 50.82 10.835c.08.018.162.027.245.026.614-.001 1.111-.474 1.11-1.056 0-.492-.36-.918-.867-1.026zM77.993 38.06l-31.56-12.974a1.138 1.138 0 0 0-1.446.53l-2.63 5.19a1.108 1.108 0 0 0 .457 1.512 1.139 1.139 0 0 0 1.566-.516v.003l2.157-4.26 30.586 12.571a1.136 1.136 0 0 0 1.478-.599 1.11 1.11 0 0 0-.608-1.458z" fill="#838DB5"/><path d="M77.609 54.392h-9.997c-.596 0-1.08.454-1.08 1.013 0 .56.484 1.014 1.08 1.014h9.997c.596 0 1.08-.454 1.08-1.014s-.484-1.013-1.08-1.013zM57.922 54.392c-6.434 0-11.65 5.218-11.65 11.655.007 6.435 5.22 11.65 11.65 11.656 6.434 0 11.65-5.219 11.65-11.656s-5.216-11.655-11.65-11.655zm0 21.192c-5.264 0-9.531-4.27-9.531-9.537.006-5.264 4.27-9.53 9.531-9.536 5.264 0 9.531 4.27 9.531 9.536 0 5.267-4.267 9.537-9.53 9.537z" fill="#838DB5"/><path d="M88.312 58.446c-7.077 0-14.689 1.626-14.689 5.194v31.166c0 3.568 7.612 5.194 14.689 5.194S103 98.374 103 94.806V63.64c0-3.568-7.611-5.194-14.688-5.194zm12.017 36.34c-.201.721-4.206 2.617-12.017 2.617-7.812 0-11.816-1.896-12.018-2.597v-2.042c2.841 1.392 7.535 2.042 12.018 2.042 4.482 0 9.177-.656 12.017-2.043v2.023zm0-5.194c-.201.72-4.206 2.617-12.017 2.617-7.812 0-11.816-1.896-12.018-2.598v-2.04c2.841 1.391 7.535 2.04 12.018 2.04 4.482 0 9.177-.655 12.017-2.042v2.023zm0-5.194c-.201.72-4.206 2.616-12.017 2.616-7.812 0-11.816-1.896-12.018-2.597v-2.041c2.841 1.392 7.535 2.041 12.018 2.041 4.482 0 9.177-.656 12.017-2.042v2.023zm0-5.195c-.201.721-4.206 2.617-12.017 2.617-7.812 0-11.816-1.896-12.018-2.597v-2.041c2.841 1.392 7.535 2.041 12.018 2.041 4.482 0 9.177-.656 12.017-2.043v2.023zm0-5.194c-.201.72-4.206 2.617-12.017 2.617-7.812 0-11.816-1.896-12.018-2.597v-2.042c2.841 1.386 7.535 2.042 12.018 2.042 4.482 0 9.177-.656 12.017-2.043v2.023zm0-5.194c-.201.72-4.206 2.617-12.017 2.617-7.812 0-11.816-1.896-12.018-2.598v-2.04c2.841 1.385 7.535 2.04 12.018 2.04 4.482 0 9.177-.655 12.017-2.042v2.023zm-12.017-2.578c-7.8 0-11.803-1.89-12.018-2.573v-.008c.215-.724 4.218-2.613 12.018-2.613 7.744 0 11.75 1.862 12.017 2.597-.267.735-4.273 2.597-12.017 2.597z" fill="#FB9116"/><path d="M47.16 75.447H37.11l-4.765-5.159v-8.554l5.262-5.086h9.552c.63 0 1.14-.505 1.14-1.128 0-.623-.51-1.128-1.14-1.128H37.144c-.297 0-.584.114-.797.32l-5.94 5.734a1.405 1.405 0 0 0-.342.92v9.36c0 .282.106.553.298.761l5.401 5.849c.216.233.522.367.842.367h10.553c.63 0 1.14-.505 1.14-1.128 0-.623-.51-1.128-1.14-1.128zM59.104 64.809h-1.35c-.42 0-.676-.216-.676-.31s.255-.31.675-.31h3.377c.746 0 1.35-.554 1.35-1.239 0-.684-.604-1.238-1.35-1.238h-1.35c0-.684-.606-1.239-1.351-1.239-.746 0-1.351.555-1.351 1.239v.055c-1.498.194-2.633 1.34-2.701 2.726.096 1.624 1.605 2.872 3.376 2.793h1.35c.42 0 .676.216.676.31s-.255.31-.675.31h-3.377c-.746 0-1.35.554-1.35 1.238 0 .684.604 1.239 1.35 1.239h1.35c0 .684.606 1.239 1.352 1.239.745 0 1.35-.555 1.35-1.24v-.055c1.498-.194 2.633-1.339 2.702-2.725-.097-1.624-1.606-2.872-3.377-2.793z" fill="#838DB5"/></svg>