<svg viewBox="0 0 498 315" xmlns="http://www.w3.org/2000/svg"><path fill="#FB9116" d="M352.544 43.844c-3.63 3.487-4.952 7.625-1.662 11.776 3.29 4.15 11.444 4.85 13.384 0 .936-2.342 1.757-8.71-2.76-11.776-1.721-1.169-5.333-3.488-8.962 0zM298.094 92.431c-3.855 0-16.105 14.703 0 23.668 16.105 8.966 34.436-16.207 30.319-25.146-2.745-5.959-8.403-6.541-16.973-1.747-4.634 2.959-9.082 4.034-13.346 3.225zM279.96 60c9.087.98 12.04 2.204 12.04 11.816s-15.309 9.196-17.557 6.576c-2.248-2.62-8.758-16.298 5.516-18.392zM343.492 79.5s-2.595 8.01 4.132 6.246c7.003-5.724-3.657-7.804-4.132-6.245zM295.099 2.698c-2.27 0-7.962 10.34 0 13.005 3.832.1 11.012 2.22 11.901-6.502-1.683-10.346-9.63-6.503-11.901-6.503zM261.693 121.396c-1.493 1.051-1.999 2.163-1.517 3.335 1.883 1.342 3.388 1.62 4.517.833 1.743-2.082 1.743-3.451 0-4.11-2.613-.987-3-.058-3-.058zM279.601 237.13c4.453-11.49 9.46-12.135 15.024-1.936-.293 2.866 3.176 15.29-6.457 17.17-11.039 4.593-13.894-.486-8.567-15.235zM288 184.245c.207 2.608 1.112 4.26 2.714 4.954 2.403 1.042 5.01 6.687 8.828 1.905 1.868-5.615-1.98-7.902-11.542-6.86zM327.296 199c-1.317 0-2.58 1.788-2.24 3.36.34 1.572 2.235 2.64 3.539 2.64 1.303 0 2.722-.887 2.342-2.64-.379-1.753-2.324-3.36-3.64-3.36zM413.187 192.6c-2.09 7.045-1.42 11.541 2.01 13.489 5.147 2.922 14.665-1.683 12.484-6.745-2.182-5.06-5.083-7.344-7.079-7.344-1.33 0-3.802.2-7.415.6zM418.014 228.622c-2.014 2.374-2.518 4.404-1.51 6.092 1.51 2.531 3.449 3.286 4.582 3.286 1.134 0 6.914-1.883 6.914-3.286s-.834-4.848-2.406-6.092c-1.047-.83-3.574-.83-7.58 0zM491.95 298.606s-7.116-2.24-10.147 1.896c-3.031 4.136-1.685 8.22 0 9.79 1.685 1.57 8.755 2.293 10.148 1.147C493.344 310.292 497 307.34 497 305s-5.05-6.394-5.05-6.394zM5.134 278.295c6.577-.822 9.866.074 9.866 2.687 0 3.92-.559 8.018-2.746 8.018S2 287.874 2 285.687c0-1.458 1.045-3.922 3.134-7.392zM112.9 134.392s6.1 2.138 6.1 6.481-3.816 6.127-6.1 6.127c-2.285 0-10.6-5.114-7.015-9.827 3.586-4.713 7.015-2.781 7.015-2.781z"/></svg>