<svg viewBox="0 0 1445 81" xmlns="http://www.w3.org/2000/svg" xmlns:xlink="http://www.w3.org/1999/xlink">
    <defs>
        <path d="M0,32.4115467 C1.51424264,32.6680219 3.04462234,31.869361 6.49868579,31.4294995 C7.75106802,31.2700331 12.2223528,31.6354769 13.6072056,31.4799972 C19.405103,30.8328293 22.5532959,29.7830088 23.4260173,30.0913106 C26.0898051,29.2315209 27.0330893,30.1192172 28.1224873,29.7484578 C31.7107817,28.5298687 34.3651807,22.860838 37.8400756,23.424286 C40.4312467,23.8442142 41.7119421,25.0229367 45.7184797,23.3830905 C48.720999,24.3159689 49.9760218,22.5658251 49.9760218,23.8880674 C54.5485299,23.7246144 49.8573411,23.7658098 54.1420228,22.6561894 C55.1375325,22.3983854 58.817368,17.4124025 58.6408873,17.8323307 C58.2292457,18.8130491 58.6427944,18.3971075 60.5230548,19.3525771 C64.1637213,21.2023874 65.3541959,16.6363327 67.7649254,18.7040804 C69.0683594,19.823003 72.0499005,13.6224176 73.115533,14.7373536 C73.8157345,15.4695701 76.5888142,12.9898675 79.0683462,13.5679333 C83.7098036,14.6483182 86.3248868,10.5075072 86.8135462,10.8051778 C89.6830081,12.5473483 86.7676289,12.6377126 90.9430188,12.092869 C91.633098,12.0025047 96.9043406,10.1380767 96.4818431,10.4463784 C100.720461,11.0523507 101.985166,11.9320737 102.394314,11.9254293 C104.085184,11.9015093 102.174556,10.615147 110.333452,10.3786052 C111.089399,10.357343 110.61629,13.1307295 111.46554,13.0217608 C112.487162,12.8915299 116.74177,15.0589441 116.74177,15.0589441 C119.364335,13.9174305 119.874119,16.4223819 122.210618,16.2150756 C124.299193,16.0290314 123.905156,20.9525567 125.213431,20.4834597 C128.70637,20.2588778 129.523492,19.5771589 130.140221,19.4230081 C135.205203,20.0847937 135.514887,22.97778 136.291373,22.7930648 C141.635819,22.0329416 142.359786,29.6182269 144.563815,30.1311772 C148.127904,30.9604025 146.342265,26.5950096 151.056046,27.3936705 C153.230147,27.7617722 160.576909,29.558427 162.733406,29.9238708 C167.627335,30.7530961 174.884609,30.5045943 179.090513,31.2168776 C181.308624,31.5916236 177.953584,34.8646716 182.865117,35.4374218 C189.685223,36.2334249 187.395228,34.5523832 189.490112,33.4507361 C190.536086,32.9005771 192.54735,34.0540507 194.290152,33.6367803 C196.189924,33.182301 197.771355,31.1584066 197.435411,30.5803409 C197.078929,29.969053 199.927853,31.3444507 203.863827,31.3417929 C206.857985,31.3391352 205.813477,25.3392117 209.136244,25.1810742 C211.486386,25.0694477 208.484893,23.4296015 211.294208,22.8435625 C212.35632,22.6216384 218.203802,24.1006893 219.308457,24.0608227 C223.518761,24.1006893 223.523162,26.1498326 223.910452,26.0873749 C225.355452,25.8534909 228.003396,22.0236394 228.930543,21.969155 C231.610761,21.8150042 231.370173,23.2422285 235.907619,22.836918 C241.273924,22.3585188 236.781954,17.8881439 242.523812,18.4981029 C244.573218,18.7147115 256.765497,21.886764 259.164051,21.8615152 C262.683396,21.8256352 266.537218,14.8596111 271.501563,15.4788723 C275.262964,15.9492982 273.486421,20.26818 277.275695,19.295435 C282.50997,17.9519305 277.39599,17.8230285 282.03466,18.168539 C284.50803,18.3532543 286.677731,16.5579283 288.269431,17.2250295 C291.495376,18.5778361 292.83035,20.6469127 293.286589,21.5837779 C293.396614,21.8083597 292.48267,23.8123209 293.116416,23.7299299 C296.948234,23.2382418 297.598117,25.7365488 298.877345,27.0734088 C301.358051,29.6620802 306.232909,30.9324958 306.816777,31.1584066 C309.216797,32.091285 307.293553,32.0075652 310.237832,32.6932707 C311.902883,33.0813056 312.012909,31.1305 313.537127,30.6188786 C316.196807,31.3630551 319.281919,30.6866518 320.056497,30.8341582 C327.824289,32.3118802 320.390975,34.6121831 328.267325,33.1411055 C329.482005,32.9138659 333.602822,35.8400744 335.487924,37.8799155 C336.422406,38.8911983 338.01264,35.6646614 338.537827,36.4739534 C338.633183,36.6214598 340.794081,38.4008391 341.835655,38.1762573 C344.087508,37.6925425 343.929071,36.467309 346.860147,35.6912391 C349.239629,35.0600179 354.717426,34.9058671 356.675878,34.2454104 C358.487629,33.6354514 355.81768,32.1696894 358.139949,32.1657027 C360.007447,32.1630449 361.544868,32.7916083 363.239259,33.7205001 C364.090122,34.1869394 363.814325,35.517155 365.981091,35.2965598 C367.200173,35.1716444 369.427086,32.971008 369.84665,33.1198434 C371.876985,33.8387711 374.781655,33.3869496 377.454538,34.0407618 C382.366071,31.7683656 383.181726,28.912588 387.47565,28.0421673 C389.381289,27.6541323 392.500142,28.1604382 393.840985,28.2003048 C395.740756,28.256118 395.639533,22.5924029 396.999447,22.0355993 C399.16768,21.1465741 401.909513,23.4628237 401.909513,22.3066922 C407.509071,22.3638344 406.169695,22.2083546 407.630832,21.4442448 C409.045025,20.702726 411.723777,20.9392678 412.419137,20.3585443 C412.859239,19.9904427 414.205949,16.2416533 414.929183,16.5539417 C415.441168,16.7745369 418.557086,17.3579181 422.275944,17.7207042 C423.968868,17.8854862 427.018772,17.0602475 427.832959,17.3977847 C428.757173,17.7805041 428.190909,20.1791446 429.159132,20.3930954 C430.921005,20.7824592 434.161619,21.4694936 435.223731,21.4694936 C436.169949,21.4694936 436.799294,23.8681341 437.207122,24.2388935 C440.675122,27.3963283 442.855091,23.2515307 449.745614,25.6940244 C450.392563,25.922593 450.681563,24.4262665 453.80335,23.3977082 C455.166198,22.9485445 465.212249,28.2016337 460.591183,25.1558253 C460.438614,25.0561588 463.916883,23.8136498 467.695888,23.6156456 C470.73699,24.4767642 474.122838,24.3199556 475.149741,24.2468668 C478.390355,24.0143117 475.176147,27.5916747 478.91701,26.9910179 C480.868127,26.6774006 487.685299,28.1431626 490.167472,28.3531267 C491.90734,28.5006332 493.07801,30.3690479 495.859452,30.0408129 C497.452619,29.8521109 497.297117,27.4295505 499.004711,26.5179342 C499.870244,26.0568105 502.37002,28.2149225 503.458538,27.7923366 C504.816985,27.2660974 506.527513,27.3989861 508.07667,27.0694222 C509.577416,26.7491605 510.928528,24.9073235 511.66203,24.6455328 C513.055685,24.1472003 517.600467,24.2787601 519.208305,25.0162922 C523.610787,26.5126187 523.236701,24.7319105 525.872909,24.4395554 C527.951655,24.209658 530.605467,26.4634499 533.273949,26.6946761 C536.50136,26.9724135 539.750777,25.2674518 542.036371,25.2873851 C542.678919,25.2927007 544.176731,26.8780625 545.772832,26.9298891 C547.82664,26.9963334 550.044751,25.5624647 550.826665,25.9026597 C552.613477,26.6813873 549.939127,28.115256 552.846731,28.2268825 C557.797873,28.4169133 554.098086,27.1146043 557.938706,26.6202585 C558.59299,26.5352097 561.984706,25.4853892 564.075188,25.5212692 C567.337807,25.5784113 569.665944,26.7677649 570.663508,26.7651071 C572.849345,26.7584627 568.333904,29.1451432 570.898228,29.242152 C571.754959,29.2740452 575.818563,27.646159 576.915883,27.4641015 C577.106594,27.4322083 578.572132,25.4455226 580.313467,24.9657945 C585.154584,25.6063179 589.718437,24.843537 589.829929,24.8727725 C591.373218,25.2674518 591.563929,26.5272364 593.704289,26.5272364 C597.032924,26.5272364 596.246609,24.2774312 598.307751,24.6255995 C600.185518,24.9445323 606.013929,27.5743991 610.296117,28.3252201 C614.606178,29.0813567 630.350076,26.9179291 633.822477,26.1033216 C634.762827,25.8840552 642.919376,22.5817718 646.121848,22.2083546 C649.337523,21.8336086 649.017716,18.4050809 649.017716,19.5572256 C649.017716,19.7605453 655.355178,22.7399093 657.627569,21.735271 C659.465726,20.9219923 659.905827,13.9453371 661.01635,14.8981489 C661.453518,15.2728949 661.698508,16.9818432 663.319548,16.9765277 C665.87067,16.9698832 669.703954,14.0689235 674.527467,14.8861889 C675.86831,15.1134285 675.715741,16.2150756 677.096193,16.3612531 C687.532467,17.4682157 677.7769,13.5785644 686.036138,13.5679333 C687.087507,13.5666718 689.165072,10.526153 691.946889,11.1719505 C695.026213,11.8868142 697.873392,14.6207223 699.133543,14.8343623 C700.551118,15.075063 701.877653,13.9496658 706.404466,11.7074919 C706.819945,11.5017015 705.675818,9.23917713 706.404466,8.05039566 C707.160361,6.81716274 709.790801,6.65876707 710.298919,6.58596251 C713.122904,6.18198095 712.094533,6.26570082 715.173777,6.18065207 C719.530782,6.06105226 723.300985,0.543514662 724.097569,0.337537223 C726.377294,-0.253817361 725.815431,3.41523883 728.237457,2.89431524 C729.049045,2.71970254 731.564361,3.57865021 733.841716,2.89431524 C736.261268,2.16725016 738.448636,-0.0968849589 739.319213,0.0119599803 C742.322657,1.5168045 743.268675,3.16934456 744.423376,3.77403824 C746.186922,4.69757191 748.197296,4.68293917 748.517335,5.02584952 C749.519299,6.09958998 748.983843,8.55271484 750.845472,8.9859319 C753.745741,9.66100635 754.913477,3.83516703 757.97365,5.44311995 C759.857284,6.43048277 764.280305,5.88563922 764.855371,5.99460793 C765.571269,6.13148326 770.930239,10.4995339 772.265213,11.7300829 C773.560579,12.9234232 770.793807,14.9765532 773.918528,14.4104474 C775.717076,14.0835413 783.383645,11.4762656 785.460924,11.3247725 C788.698604,11.0882307 787.108371,14.0662658 789.137239,14.7214069 C792.112325,15.6835209 797.490365,10.7001958 793.102553,12.1898777 C788.170482,13.864275 806.409756,20.0143627 809.30269,20.5047219 C814.815695,21.4389292 803.315843,22.9033624 810.958939,23.9651428 C813.226929,24.280089 815.481716,22.6694783 820.878827,21.4429159 C822.941437,20.9738189 822.628964,23.553188 825.491091,23.68209 C830.97769,23.9305918 839.807594,27.5385192 841.009071,27.5478214 C841.302472,27.5504792 838.337655,29.1544454 839.666761,29.8361643 C840.85797,30.4474522 846.417919,30.1112439 845.721091,30.6401408 C846.300558,33.0627012 849.994477,32.3982579 853.111863,31.8667032 C856.471305,31.293953 861.126112,32.8062261 864.032249,31.1291711 C867.126162,29.3444762 866.888508,26.4740809 869.628873,25.8960152 C872.375107,25.3166206 873.093939,27.998314 875.202025,27.6381857 C878.196183,27.1265643 879.878838,27.3856972 883.380579,27.4268927 C888.532701,27.4893504 884.589391,30.1909771 889.46865,30.7477806 C893.962086,28.5524598 897.438888,29.7883244 898.96164,29.5717159 C900.896619,29.2966363 900.333289,26.0196017 902.984168,25.2036653 C904.333812,24.7877237 904.332345,27.939843 905.940183,28.5591042 C906.705959,28.854117 907.768071,27.1092888 908.865391,26.8116182 C915.995036,26.8647736 915.519726,24.9352301 916.328046,24.1950402 C919.021467,25.0441988 919.747635,21.9518795 919.832721,21.9518795 C922.812208,21.9425773 923.608792,23.6674722 926.426909,23.9957072 C928.38536,24.2229469 927.251365,22.7306071 929.212751,22.1870924 C932.303731,22.9698067 934.865122,22.5193141 935.287619,22.4090165 C936.128213,22.1884213 939.324817,21.7684931 940.077391,21.8482263 C943.376685,23.3365794 944.738066,22.4010432 946.27402,22.4302787 C947.575254,22.4541987 949.00265,23.7033522 950.56501,23.8482008 C952.29901,24.0089961 954.200249,17.7366509 956.284863,17.4695446 C958.624736,18.379832 961.01302,18.0834903 961.16999,18.3466099 C961.567548,19.0150399 963.228198,20.2362867 964.954863,20.5299707 C967.60134,20.9778055 966.085924,18.6974359 968.838025,18.0356504 C969.446832,17.8894728 970.943178,19.6343011 972.518741,19.8482518 C974.513868,20.1193447 976.635157,18.8914534 977.229294,18.7997602 C979.960858,18.3785031 981.844492,20.3492421 983.868959,19.8043986 C985.154056,19.458888 992.330645,16.2469689 993.203513,16.4130797 C997.494503,17.2343317 997.735091,19.2157018 1003.50189,19.5891189 C1008.06281,19.8841318 1017.33135,17.3871537 1019.3118,17.735322 C1022.90156,18.3652143 1023.02039,20.0781492 1027.42727,20.326651 C1030.43023,20.4954197 1027.97153,18.7000937 1030.0004,18.3346499 C1031.11532,18.1326591 1033.22635,15.307446 1035.43859,15.424388 C1037.89289,15.5546189 1040.47042,14.6403448 1041.95503,14.3851986 C1043.37362,14.1406834 1041.05282,16.0821869 1045.18977,16.4649063 C1047.69982,16.6961326 1048.82501,12.8064812 1052.60255,12.5194417 C1056.17764,12.2483488 1062.45349,12.9327254 1063.34249,12.7174458 C1066.93079,11.8496828 1068.5621,11.6636386 1071.45796,10.6204625 C1072.12252,10.3812629 1075.50983,8.05039566 1076.8096,8.05039566 C1080.20278,8.05039566 1082.87566,9.42978006 1084.22531,8.01850238 C1084.66101,7.56269424 1087.99991,3.67702951 1088.28598,3.77403824 C1090.05519,4.37336615 1092.7178,9.59323313 1093.47478,9.89887707 C1096.3017,11.0443774 1097.08214,10.979262 1106.42696,10.9540131 C1111.68324,10.9393954 1109.71159,18.1592368 1114.96493,18.1034236 C1118.40653,18.0675436 1119.30874,14.7533002 1123.07454,15.412428 C1125.86918,15.9014583 1125.11221,20.0994114 1128.23986,20.4316331 C1131.76214,20.8050503 1132.05994,19.1851374 1135.86095,19.1638752 C1139.52113,20.6017306 1140.35879,15.9997959 1141.6791,16.4463019 C1144.90504,17.5399756 1144.53536,14.1300523 1149.22097,12.4888773 C1150.39017,12.0795802 1148.85128,14.1420123 1150.53394,14.1393545 C1150.96671,14.1393545 1154.82786,16.3851731 1152.89582,17.2941316 C1151.43761,17.9798371 1152.99851,19.0628798 1153.18922,18.9924488 C1153.51783,18.8688623 1157.40539,16.5884927 1158.14476,16.6695548 C1159.07631,18.9964355 1162.38881,16.9592521 1162.93453,17.2263584 C1164.09787,17.793793 1163.6431,19.2927772 1163.96877,19.060222 C1167.67296,20.6256506 1166.20302,17.8721973 1168.24803,17.441638 C1169.65048,17.1452963 1170.24315,22.2535368 1171.12042,22.6017051 C1172.30723,23.0734599 1174.58549,23.9359073 1175.12681,23.3445528 C1175.28818,23.1678108 1175.16936,26.1059793 1178.38356,27.3511462 C1179.42807,27.7551277 1180.27893,28.6933217 1181.74741,28.4900021 C1183.98752,28.1817004 1181.62418,26.074086 1183.91857,25.6780778 C1185.94744,25.3299095 1190.19295,28.1325316 1196.3001,26.7478316 C1204.67083,24.8501814 1204.54613,25.840202 1209.26255,24.7345682 C1210.72369,24.3917155 1212.39608,25.5425314 1213.40244,25.7139577 C1216.32618,26.2096325 1219.76484,29.0760411 1223.03333,29.0760411 C1225.55511,29.0760411 1227.91552,27.1318799 1229.55857,27.7803766 C1230.04561,27.9717363 1228.22506,29.7630755 1229.48228,29.9650663 C1231.17961,30.2374881 1235.92977,28.9152458 1235.45299,29.10129 C1230.07936,31.211562 1241.05842,30.2521058 1241.91515,28.9218903 C1242.08826,28.654784 1241.34009,27.0149378 1242.30684,26.9418491 C1244.09952,26.8063026 1246.97485,27.5531369 1249.90006,27.9013053 C1253.01305,28.2733935 1256.18471,28.2627624 1258.1725,28.6521263 C1260.0488,29.0215568 1260.14709,26.3398634 1261.78867,26.8195915 C1264.06106,27.4853637 1266.45375,27.9013053 1269.23372,26.9086269 C1271.10709,26.2401969 1264.65666,31.2089043 1276.35896,28.3637578 C1278.09737,27.939843 1280.06462,28.9378369 1281.88811,28.7996327 C1283.43873,28.6826906 1284.02113,27.1199199 1286.07641,27.0069645 C1288.00845,26.9019825 1291.42217,28.2627624 1292.65152,27.7059589 C1294.02757,27.0813822 1292.4168,24.5471952 1294.25789,24.6814128 C1297.96648,24.9538346 1298.76013,20.4808019 1302.13424,21.0522232 C1304.9861,21.5359379 1304.14991,19.2675283 1306.89908,19.6555633 C1309.63064,20.0422693 1317.01261,21.523978 1318.85223,21.5186624 C1321.14076,21.512018 1321.02927,16.1087646 1325.9452,16.6615815 C1327.16575,16.7984568 1330.22152,14.5778872 1331.73401,15.3845214 C1333.15553,16.1433157 1333.02937,18.3625565 1334.24992,18.1007658 C1339.01475,17.0761942 1337.74873,15.0855219 1338.0656,13.0443519 C1341.75952,12.632397 1341.13751,11.4151368 1341.07736,11.1719505 C1347.05834,11.3473636 1349.08574,10.8370711 1349.08574,10.8370711 C1349.08574,10.8370711 1353.60705,13.3765736 1354.88628,13.3606269 C1357.55329,13.3287337 1363.14405,11.7207807 1365.64676,11.7074919 C1367.08443,11.6995186 1365.96363,14.3599497 1370.17834,13.7606218 C1372.60917,13.4137824 1381.04005,17.3738648 1383.75254,17.6888109 C1384.55352,17.781833 1387.82054,19.7552298 1389.93303,20.2229979 C1391.22693,20.5087085 1391.11397,21.8854352 1392.59271,22.2017102 C1397.41476,23.235584 1402.59475,24.209658 1404.06322,23.6741167 C1405.84123,23.0269488 1405.78549,25.7857176 1407.53269,25.2116386 C1409.76694,24.4767642 1410.40509,26.5445119 1411.81048,26.5272364 C1413.58702,26.5059742 1415.02175,23.7631521 1414.57578,24.4036755 C1418.69953,25.0641321 1419.79685,24.5631419 1420.48341,24.7451993 C1422.37291,25.2430889 1425.58174,25.1930342 1430.1099,24.5950351 C1430.1099,24.5950351 1430.26687,25.981064 1431.46394,26.4873698 C1432.71823,27.0189245 1437.63857,27.7843632 1437.63857,27.7843632 C1437.63857,27.7843632 1438.7711,26.6056407 1439.88749,26.3518234 C1443.51832,26.1976725 1444.33985,26.2375391 1444.33691,26.2601302 C1443.86894,32.5085555 1444.33692,557.275683 1444.33692,557.275683 L0,557.275683 C0,557.275683 0,37.2672988 0,32.4115467 Z" id="path-1"></path>
    </defs>
    <g id="Artboard-5" stroke="none" stroke-width="1" fill="none" fill-rule="evenodd">
        <g id="Group-3" transform="translate(0.000000, 7.000000)">
            <mask id="mask-2" fill="white">
                <use xlink:href="#path-1"></use>
            </mask>
            <g id="Clip-2"></g>
            <polygon id="Fill-1" fill="#F7F6F6" mask="url(#mask-2)" points="0 536.823718 1444.33691 536.823718 1444.33691 -45.228659 0 -45.228659"></polygon>
        </g>
    </g>
</svg>