<svg viewBox="0 0 298 295" version="1.1" xmlns="http://www.w3.org/2000/svg"><g id="Group" transform="translate(-2.000000, 28.000000)" fill="#FB9116" fill-rule="nonzero"><path d="M189.657654,32.4098966 C186.935907,35.0769704 185.943666,38.2408787 188.411357,41.4149562 C190.879048,44.5890337 196.994557,45.1239666 198.449409,41.4149562 C199.151722,39.6244751 199.767602,34.7551339 196.379619,32.4098966 C195.088762,31.516336 192.379401,29.7428228 189.657654,32.4098966 Z" id="Path-6"></path><path d="M148.22608,70.0241812 C145.260927,70.0241812 135.837385,81.510997 148.22608,88.5151211 C160.614775,95.5192451 174.715649,75.8531167 171.548446,68.8698849 C169.436978,64.214397 165.084808,63.7593378 158.491936,67.5047074 C154.928068,69.8163469 151.506116,70.6561715 148.22608,70.0241812 Z" id="Path-7"></path><path d="M134.826137,45 C141.749867,45.7349726 144,46.6533079 144,53.8622782 C144,61.0712484 132.336191,60.7593035 130.623462,58.7940508 C128.910733,56.828798 123.950626,46.5703762 134.826137,45 Z" id="Path-8"></path><path d="M183.351717,59.357724 C183.351717,59.357724 181.497832,65.0781164 186.302566,63.818915 C191.305211,59.729776 183.690407,58.244275 183.351717,59.357724 Z" id="Path-9"></path><path d="M146.074276,0.548744401 C144.371514,0.548744401 140.102934,8.67203051 146.074276,10.7670034 C148.948329,10.8445595 154.333093,12.5115375 155,5.6578739 C153.738107,-2.47115711 147.777038,0.548744401 146.074276,0.548744401 Z" id="Path-10"></path><path d="M120.410719,92.3164717 C119.166604,93.1577975 118.745379,94.0471384 119.147044,94.9844943 C120.715681,96.0584594 121.970365,96.2805821 122.911096,95.6508625 C124.362968,93.9858448 124.362968,92.890103 122.911096,92.363637 C120.733289,91.573938 120.410719,92.3164717 120.410719,92.3164717 Z" id="Path-11"></path><path d="M134.023315,182.373652 C137.48639,173.094281 141.381439,172.573127 145.708462,180.810189 C145.480234,183.125023 148.178908,193.160262 140.686234,194.67895 C132.100576,198.388163 129.879603,194.286397 134.023315,182.373652 Z" id="Path-12"></path><path d="M141,141.190461 C141.155222,143.219021 141.833628,144.503455 143.035218,145.043763 C144.837603,145.854225 146.793677,150.244412 149.656768,146.525201 C151.05731,142.157845 148.171721,140.379598 141,141.190461 Z" id="Path-13"></path><path d="M170.913585,153 C169.815968,153 168.763319,154.490044 169.046775,155.799919 C169.330231,157.109795 170.90926,158 171.995582,158 C173.081904,158 174.264096,157.261048 173.947908,155.799919 C173.63172,154.33879 172.011201,153 170.913585,153 Z" id="Path-14"></path><path d="M236.890058,147.439881 C235.32264,152.606245 235.825424,155.903603 238.39841,157.331955 C242.257888,159.474484 249.396267,156.097404 247.760419,152.385918 C246.12457,148.674433 243.948648,147 242.451835,147 C241.45396,147 239.600034,147.146627 236.890058,147.439881 Z" id="Path-15"></path><path d="M241.510782,175.497489 C240,177.396486 239.622305,179.020987 240.377695,180.370993 C241.510782,182.396003 242.964667,183 243.814833,183 C244.664998,183 249,181.493242 249,180.370993 C249,179.248744 248.374768,176.492467 247.195854,175.497489 C246.40991,174.83417 244.514886,174.83417 241.510782,175.497489 Z" id="Path-16"></path><path d="M298.138749,229.475979 C298.138749,229.475979 292.696544,227.715622 290.37876,230.965666 C288.060975,234.21571 289.090599,237.424317 290.37876,238.658037 C291.666921,239.891758 297.073577,240.45983 298.138749,239.558934 C299.203922,238.658037 302,236.339473 302,234.5 C302,232.660527 298.138749,229.475979 298.138749,229.475979 Z" id="Path-17"></path><path d="M6.20679613,103.301507 C6.20679613,103.301507 11,104.946466 11,108.28715 C11,111.627833 8.00173858,113 6.20679613,113 C4.41185369,113 -2.12196367,109.066418 0.695670672,105.441023 C3.51330501,101.815628 6.20679613,103.301507 6.20679613,103.301507 Z" id="Path-23"></path></g></svg>