<?xml version="1.0" standalone="no"?>
<!DOCTYPE svg PUBLIC "-//W3C//DTD SVG 20010904//EN"
 "http://www.w3.org/TR/2001/REC-SVG-20010904/DTD/svg10.dtd">
<svg version="1.0" xmlns="http://www.w3.org/2000/svg"
 width="700.000000pt" height="700.000000pt" viewBox="0 0 700.000000 700.000000"
 preserveAspectRatio="xMidYMid meet">
<metadata>
Created by potrace 1.11, written by Peter Selinger 2001-2013
</metadata>
<g transform="translate(0.000000,700.000000) scale(0.100000,-0.100000)"
fill="#000000" stroke="none">
<path d="M3218 6995 c-1 -1 -41 -6 -88 -9 -47 -4 -98 -8 -115 -11 -16 -2 -65
-9 -108 -15 -101 -15 -119 -18 -195 -35 -34 -8 -75 -17 -92 -20 -38 -7 -246
-69 -330 -100 -470 -168 -888 -428 -1240 -769 -77 -74 -115 -114 -231 -242
-95 -105 -276 -363 -371 -529 -211 -370 -374 -846 -414 -1210 -3 -27 -7 -56
-10 -63 -25 -77 -24 -770 1 -811 1 -3 6 -35 9 -71 6 -52 32 -196 61 -325 3
-11 7 -29 9 -40 4 -21 45 -158 70 -235 58 -183 193 -487 272 -612 13 -21 24
-40 24 -44 0 -3 43 -72 97 -152 105 -159 249 -342 365 -465 66 -69 78 -77 104
-72 16 2 56 7 89 9 207 16 470 69 632 128 279 101 495 317 596 598 22 63 83
315 103 425 3 17 18 89 33 160 16 72 32 146 35 165 3 19 8 46 11 60 3 14 7 36
10 50 2 14 14 75 25 135 27 140 48 256 60 320 11 61 17 89 34 180 8 39 20 103
27 143 7 39 17 73 23 73 6 1 76 2 155 3 l145 1 33 55 c18 30 37 64 42 76 5 12
43 66 85 122 110 146 247 268 412 367 l58 35 -408 0 c-383 0 -407 1 -402 18 6
20 26 107 32 142 3 14 7 33 10 42 3 10 8 30 10 45 5 25 15 74 30 138 3 11 7
31 10 45 21 104 108 186 229 219 78 20 111 24 240 25 l130 1 22 105 c12 58 24
116 26 130 3 14 8 36 11 50 3 14 8 39 11 55 3 17 8 39 10 50 3 11 16 74 29
141 14 66 28 132 31 147 6 21 3 26 -12 27 -179 6 -441 6 -483 0 -30 -5 -80
-11 -110 -15 -62 -6 -208 -44 -290 -76 -253 -97 -447 -266 -558 -486 -65 -128
-81 -185 -166 -580 -25 -116 -46 -214 -46 -217 0 -3 -70 -6 -155 -6 -85 0
-155 -4 -155 -9 0 -4 -12 -64 -26 -132 -14 -68 -28 -137 -31 -154 -2 -16 -11
-61 -20 -100 -8 -38 -16 -81 -19 -95 -2 -14 -9 -45 -14 -70 -5 -25 -11 -56
-12 -70 l-3 -25 125 -1 c69 -1 137 -2 151 -3 l25 -1 -21 -107 c-21 -103 -50
-254 -61 -318 -3 -16 -11 -57 -19 -90 -7 -33 -16 -76 -19 -95 -3 -19 -12 -71
-21 -114 -8 -44 -18 -93 -21 -110 -3 -17 -9 -50 -15 -74 -5 -23 -12 -59 -15
-80 -3 -20 -7 -45 -10 -54 -6 -21 -12 -52 -20 -102 -3 -22 -7 -43 -9 -46 -2
-3 -6 -21 -9 -40 -6 -38 -9 -50 -25 -123 -23 -99 -53 -150 -119 -198 -45 -33
-160 -67 -253 -75 l-66 -6 -75 119 c-153 240 -274 516 -344 783 -18 66 -51
222 -58 270 -3 19 -10 76 -17 125 -8 52 -13 188 -13 320 1 226 21 430 56 560
5 22 12 51 15 65 2 14 19 78 38 142 293 995 1153 1764 2170 1943 192 33 270
40 480 39 217 0 324 -9 510 -44 980 -185 1793 -895 2115 -1849 33 -97 68 -227
86 -316 17 -83 36 -209 40 -257 2 -31 6 -71 9 -90 5 -42 6 -353 1 -393 -2 -16
-7 -64 -11 -105 -3 -41 -10 -97 -15 -125 -5 -27 -11 -63 -14 -80 -46 -314
-224 -747 -429 -1043 -29 -41 -59 -84 -67 -96 -84 -122 -346 -395 -490 -513
-325 -262 -720 -455 -1130 -548 -109 -24 -137 -29 -255 -45 -349 -46 -721 -20
-1070 75 -227 62 -490 172 -675 282 l-65 39 -80 -34 c-80 -34 -267 -97 -315
-106 -14 -2 -68 -13 -120 -24 -52 -11 -126 -23 -163 -27 -76 -7 -108 -12 -114
-19 -11 -11 442 -341 577 -420 74 -44 286 -146 373 -180 37 -14 96 -38 132
-52 95 -37 316 -101 450 -130 42 -9 182 -34 220 -40 22 -3 51 -7 65 -9 134
-20 602 -28 755 -13 109 11 239 28 254 34 8 2 30 7 50 10 95 13 388 92 511
137 162 60 162 60 324 137 270 128 528 296 766 499 63 53 304 292 345 342 228
273 364 477 495 744 144 293 257 634 296 890 3 22 8 43 9 46 2 3 7 28 10 55 3
27 8 58 10 69 20 94 28 642 12 772 -4 35 -10 82 -13 105 -10 81 -36 223 -59
323 -264 1135 -1094 2063 -2200 2460 -176 63 -424 126 -590 150 -22 4 -47 8
-55 10 -8 2 -49 7 -90 11 -41 3 -84 8 -95 11 -23 5 -491 13 -497 8z"/>
<path d="M4178 4275 c-2 -2 -23 -5 -48 -9 -100 -13 -128 -19 -206 -42 -353
-102 -652 -374 -798 -728 -39 -93 -81 -234 -92 -311 -4 -27 -9 -57 -11 -65 -2
-8 -6 -76 -8 -150 -10 -298 72 -518 264 -711 142 -142 304 -227 526 -275 112
-25 160 -29 345 -28 193 1 297 17 470 74 154 50 420 186 420 213 0 14 -177
538 -184 545 -3 2 -20 -5 -39 -17 -239 -147 -560 -226 -754 -185 -167 35 -281
157 -299 322 l-7 62 705 0 704 0 27 103 c34 128 55 270 51 345 -11 200 -32
291 -95 417 -120 237 -317 370 -634 427 -51 9 -329 20 -337 13z m193 -576 c44
-11 106 -69 126 -118 20 -46 26 -168 10 -178 -14 -9 -637 -11 -643 -2 -9 15
66 134 116 185 108 109 249 150 391 113z"/>
</g>
</svg>
