<svg version="1" xmlns="http://www.w3.org/2000/svg" width="746.667" height="746.667" viewBox="0 0 560.000000 560.000000"><path d="M275.7 2.6c-.1.1-5.8.4-12.7.8-6.9.3-13.6.8-15 1-1.4.3-4.5.8-7 1-2.5.3-5.5.7-6.6 1-1.2.2-3.7.7-5.5 1-13.4 2.3-30.7 7.1-47.4 13.3-6.1 2.3-7.2 2.7-18.9 8.2-5.9 2.8-11.2 5.1-11.7 5.1s-.9.4-.9.9-.8 1.1-1.7 1.4c-8.1 2.7-35 21.3-50.3 34.8-11 9.7-29 28.1-29 29.5 0 .4-.8 1.4-1.8 2.3-1.5 1.4-6.8 8.3-13.7 17.8C43.3 134.8 23 173.1 24 176.6c.1.4-.2 1-.7 1.3-.8.5-6.9 17.2-7.8 21.1-.2.8-1.2 4.9-2.4 9-3.9 14.6-5.8 25.5-8.1 47-.8 7.3-.5 45.5.4 51.5.2 1.6.7 5.9 1.1 9.5.4 3.6.9 6.9 1.2 7.3.3.5.7 2.3.9 4 .3 1.8 1.2 6.3 2 10.2.9 3.8 1.8 8.1 2 9.4.3 1.3 1.1 3.9 1.9 5.7.7 1.8 1.1 3.5.8 3.8-.3.3 0 1.2.7 2.1.7.8.9 1.5.6 1.5-.4 0-.2.9.4 2.1.6 1.1 1.3 3 1.6 4.2.3 2 2.1 6.8 6.3 17.2 2.7 6.8 14.8 30.8 17.5 34.8 1.4 2.1 2.6 4 2.6 4.3 0 1.2 9.9 15.3 18.2 25.9 7.7 9.9 11 13.6 21.8 24.5 10.2 10.2 15.6 14.9 26 23 2.5 1.9 4.7 3.7 5 4 .3.3 3.2 2.3 6.5 4.5s6.1 4.3 6.3 4.7c.2.5.8.8 1.4.8.5 0 2.2.9 3.8 2 6.9 4.9 31.7 17.5 44 22.3 18.9 7.4 45.6 14.6 60.8 16.3 2.6.2 6.1.7 7.7.9 15.4 2.4 47.7 2.4 67 0 11.3-1.4 12.9-1.6 13.5-2 .3-.2 2.7-.6 5.4-.9 2.6-.3 5.2-.8 5.7-1.1.9-.6 2.4-1 7.9-2 5.8-1.1 27.5-8 35-11.2 1.9-.8 4.4-1.9 5.5-2.3 14.5-5.8 43.6-22.1 54-30.2.6-.4 3-2.4 5.5-4.3s5-3.8 5.5-4.3c8.2-6 28.1-25.2 36.5-35.2 2.5-2.9 5-5.8 5.6-6.4 1.2-1.3 14.3-19.3 16.1-22.2 5.5-8.6 12.3-20.2 12.3-20.7 0-.3 1.3-2.8 2.8-5.4 2.6-4.5 12.4-26.6 12.8-28.8.1-.5 1.1-3.5 2.2-6.5 2.1-5.6 8.2-26.8 8.7-30.5.2-1.1.6-3.1.9-4.5.4-1.4.9-3.9 1.2-5.5.2-1.7.7-4.4 1-6 3.4-18.6 3.9-62.4 1-79.5-.3-1.4-.7-4.3-1-6.5-.4-2.2-.8-5.1-1.1-6.5-.2-1.4-.7-3.7-.9-5.2-1.6-9.9-10.3-39.2-13.3-45.1-.8-1.6-1.6-3.7-1.8-4.7-.5-2.6-11-24.2-15.8-32.5-4.5-7.8-14.9-23.6-18.1-27.6-1.2-1.4-3.2-4.1-4.6-5.9-11.9-16-33.1-36.7-52.5-51-8.8-6.6-23-16-24-16-.3 0-2.3-1.1-4.5-2.5-11.9-7.5-40.6-19.9-56-24.1-8.2-2.3-25.2-6.5-28-6.9-1.9-.3-6.2-1-9.5-1.5-10.8-1.7-13.9-2-24.5-2.6-14-.7-21.1-.9-21.3-.8z"/></svg>